<svg xmlns="http://www.w3.org/2000/svg" viewBox="0 0 400.88 693.77"><defs><style>.cls-1{fill:none;}</style></defs><title>clouds</title><g id="Слой_2" data-name="Слой 2"><g id="clouds"><path id="cloud7" class="cls-1" d="M208.85,368c-6.16-5.45-44.32-38.13-97-31-36.91,5-81.28,29.58-79,50,4.51,40.53,191,48.76,261,49,13.72.05,105,.07,106-11,.46-5.16-18.86-10.79-23-12-67.55-19.69-108.2,25.21-157,5-28.41-11.76-45.57-39.78-42-45,5.63-8.25,71,28.68,73,25C252.1,395.73,228.09,380.1,208.85,368Z"/><path id="cloud6" class="cls-1" d="M103.85,499c124-26,292.48-46.54,295-38,.72,2.44-13.16,9.65-36,18-128.25,46.85-192,2.64-300,45-28.63,11.22-54.07,26.06-61,18-6.7-7.79,5.49-35.09,26-47C54.8,479.34,89.27,502.06,103.85,499Z"/><path id="cloud5" class="cls-1" d="M99.85,555c20-41.15,304.41,47.38,301,61-.52,2-29-1-86-7-132.76-14-156.5-22.29-207-14-33.78,5.55-77,18.08-77,18s29-29,66-35C108.88,576.05,96.83,561.2,99.85,555Z"/><path id="cloud4" class="cls-1" d="M22.85,245c39.2-43.31,159.54,59.87,257,7,28.93-15.7,45.34-39.45,69-33,26.4,7.2,46.25,47.8,35,68-9.88,17.72-41.79,16.33-66,16-182.57-2.47-268,50.62-297,6C9.21,291.14,8.62,260.71,22.85,245Z"/><path id="cloud3" class="cls-1" d="M30.85,661c2.71-18.18,368-35,370-18,.92,7.7-75.21,16.23-110,28C146.81,719.73,28.37,677.59,30.85,661Z"/><path id="cloud2" class="cls-1" d="M6.85,79c-.4-8.14,205.39-27.83,211,0,2.15,10.7-25.16,29-19,40,2.8,5,10.59,5.07,12,11,1.49,6.31-6.3,10.64-6,14,1.37,15.77,179.91,3.12,182,16,1.64,10.17-106.48,38.09-216,34,0,0-67.63-2.52-69-17-.76-7.94,22-15.95,20-23-1.7-6.07-18.94-1.6-26-11-7.5-10,5.53-23.52,2-36C89.94,79.11,7.1,84.16,6.85,79Z"/><path id="cloud1" class="cls-1" d="M60.85,16c151,5,260-15,305-16,2.69-.06-1.81,9.12-15,11-126,18-274,22-325,26C20,37.46,35.2,15.15,60.85,16Z"/></g></g></svg>