<svg xmlns="http://www.w3.org/2000/svg" viewBox="0 0 380.02 129.79"><defs><style>.cls-1{fill:none;}</style></defs><title>cloud2</title><g id="Слой_2" data-name="Слой 2"><g id="clouds"><path id="cloud2" class="cls-1" d="M0,14.38c-.4-8.14,205.4-27.83,211,0,2.15,10.7-25.16,29-19,40,2.8,5,10.6,5.07,12,11,1.49,6.32-6.29,10.64-6,14,1.38,15.78,179.92,3.12,182,16,1.65,10.18-106.48,38.09-216,34,0,0-67.62-2.52-69-17-.76-7.94,22-15.94,20-23-1.69-6.07-18.93-1.6-26-11-7.5-10,5.54-23.51,2-36C83.09,14.49.25,19.55,0,14.38Z"/></g></g></svg>